<svg width="1024" height="1024" viewBox="0 0 1024 1024" fill="none" xmlns="http://www.w3.org/2000/svg">
<path d="M872.859 364.72C813.884 364.72 775.284 409.639 775.284 461.328C775.284 515.512 812.139 558.289 872.859 558.289C931.481 558.289 969.405 512.661 969.405 461.328C969.403 407.849 932.536 364.72 872.859 364.72ZM872.522 512.653C841.982 512.653 827.934 488.05 827.934 461.328C827.934 435.309 841.975 410.347 872.881 410.347C903.063 410.347 916.747 434.595 916.747 461.328C916.745 488.054 903.061 512.653 872.522 512.653ZM675.6 364.72C652.077 364.72 631.37 374.352 616.628 390.743V306.257C616.628 296.993 611.356 292.002 602.233 292.002H578.006C569.592 292.002 563.967 296.997 563.967 306.257V539.753C563.967 548.659 569.594 554.008 578.006 554.008H594.157C602.58 554.008 608.194 550.789 610.308 541.898C611.354 537.615 611.708 533.694 612.407 529.409C626.452 547.243 647.161 558.299 673.486 558.299C725.088 558.299 758.424 518.363 758.424 462.055C758.442 406.072 726.842 364.72 675.6 364.72ZM662.607 512.653C638.037 512.653 616.626 498.034 616.626 463.813V457.043C616.626 427.457 636.637 410.349 663.663 410.349C686.475 410.349 705.786 426.039 705.786 462.392C705.786 499.458 685.42 512.653 662.607 512.653ZM447.081 364.72C388.111 364.72 349.507 409.639 349.507 461.328C349.507 515.512 386.362 558.289 447.081 558.289C505.71 558.289 543.602 512.661 543.602 461.328C543.61 407.849 507.11 364.72 447.081 364.72ZM446.728 512.653C416.19 512.653 402.149 488.05 402.149 461.328C402.149 435.309 416.192 410.347 447.079 410.347C477.274 410.347 490.966 434.595 490.966 461.328C490.964 488.054 477.276 512.653 446.728 512.653ZM290.884 553.998H315.112C324.24 553.998 329.15 548.653 329.15 539.745V306.263C329.15 296.991 324.234 292 315.112 292H290.884C281.76 292 276.491 296.995 276.491 306.263V539.755C276.491 548.651 281.76 553.998 290.884 553.998ZM234.028 368.999H217.877C209.454 368.999 203.486 372.567 201.728 380.413C200.682 385.048 200.682 388.255 200.326 391.826C185.937 375.424 166.273 364.732 140.299 364.732C92.5538 364.732 55 401.442 55 457.768C55 513.02 89.7557 548.313 138.192 548.313C163.113 548.313 182.765 539.041 196.453 523.35V536.899C196.453 569.702 177.152 586.447 140.647 586.447C119.233 586.447 104.139 579.688 88.6985 570.772C85.5326 568.987 82.384 567.553 79.5705 567.553C75.3512 567.553 71.8425 569.7 69.0386 574.339L60.6116 587.532C58.501 590.736 57.4534 593.597 57.4534 596.808C57.4534 600.373 59.5544 603.931 63.7679 607.136C87.6374 625.328 115.014 632.435 148.019 632.435C209.448 632.435 248.044 589.662 248.044 535.143V383.266C248.061 373.986 243.139 368.999 234.028 368.999ZM196.447 459.906C196.447 489.118 176.09 505.532 149.069 505.532C126.25 505.532 107.638 489.834 107.638 457.045C107.638 422.82 128.353 409.631 150.474 409.631C174.692 409.631 196.446 423.534 196.446 457.045L196.447 459.906Z" fill="#F31D1D"/>
<path d="M625.977 594.992H651.602V645.832H695.992V594.992H721.526V729.741H695.992V670.657H651.602V729.741H625.977V594.992Z" fill="#F31D1D"/>
<path d="M749.045 630.076H773.947V678.076C773.947 687.42 774.579 693.924 775.842 697.588C777.105 701.191 779.12 704 781.887 706.015C784.714 708.031 788.173 709.038 792.263 709.038C796.353 709.038 799.812 708.061 802.639 706.107C805.526 704.092 807.662 701.16 809.045 697.313C810.068 694.443 810.579 688.305 810.579 678.901V630.076H835.301V672.305C835.301 689.71 833.947 701.618 831.241 708.031C827.932 715.847 823.06 721.863 816.624 726.076C810.188 730.229 802.008 732.305 792.083 732.305C781.316 732.305 772.594 729.863 765.917 724.977C759.301 720.092 754.639 713.283 751.932 704.55C750.008 698.504 749.045 687.512 749.045 671.573V630.076Z" fill="#F31D1D"/>
<path d="M884.564 591.603V641.069C889.015 636.55 893.827 633.16 899 630.901C904.173 628.641 909.707 627.512 915.602 627.512C928.414 627.512 939.301 632.428 948.263 642.26C957.226 652.092 961.707 664.702 961.707 680.092C961.707 694.931 957.075 707.359 947.812 717.374C938.549 727.328 927.571 732.305 914.88 732.305C909.226 732.305 903.962 731.298 899.09 729.283C894.218 727.206 889.376 723.847 884.564 719.206V729.741H860.113V591.603H884.564ZM910.459 650.595C902.699 650.595 896.263 653.283 891.15 658.657C886.038 664.031 883.481 671.053 883.481 679.725C883.481 688.58 886.038 695.756 891.15 701.252C896.263 706.687 902.699 709.405 910.459 709.405C917.977 709.405 924.293 706.626 929.406 701.069C934.579 695.512 937.165 688.428 937.165 679.817C937.165 671.267 934.639 664.275 929.586 658.84C924.534 653.344 918.158 650.595 910.459 650.595Z" fill="#F31D1D"/>
</svg>
